<?xml version="1.0" standalone="no"?>
<!DOCTYPE svg PUBLIC "-//W3C//DTD SVG 20010904//EN"
 "http://www.w3.org/TR/2001/REC-SVG-20010904/DTD/svg10.dtd">
<svg version="1.0" xmlns="http://www.w3.org/2000/svg"
 width="1600.000000pt" height="1600.000000pt" viewBox="0 0 1600.000000 1600.000000"
 preserveAspectRatio="xMidYMid meet">

<g transform="translate(0.000000,1600.000000) scale(0.100000,-0.100000)"
fill="#000000" stroke="none">
<path d="M930 12280 l0 -270 6990 0 6990 0 0 270 0 270 -6990 0 -6990 0 0
-270z"/>
<path d="M4782 9604 c-11 -21 -322 -691 -692 -1489 -370 -797 -681 -1467 -691
-1487 l-19 -38 237 0 238 0 36 83 c20 45 92 202 159 350 l122 267 612 0 611 0
149 -350 150 -350 239 0 c187 0 238 3 234 13 -17 41 -1349 3012 -1356 3025 -7
12 -13 7 -29 -24z m236 -1446 l200 -458 -433 0 -433 0 205 448 c112 246 212
465 221 487 l16 39 12 -29 c7 -17 102 -236 212 -487z"/>
<path d="M1510 8024 l0 -1436 468 5 c505 5 560 10 710 63 191 69 383 253 463
444 78 185 78 443 2 624 -72 172 -198 307 -353 379 -36 17 -67 31 -68 33 -2 1
21 33 52 69 111 135 166 283 166 447 0 300 -165 591 -400 707 -167 82 -308
101 -740 101 l-300 0 0 -1436z m772 1006 c115 -36 202 -120 235 -228 27 -87
24 -238 -7 -327 -30 -90 -107 -171 -191 -203 -69 -25 -184 -42 -295 -42 l-84
0 0 416 0 417 138 -6 c98 -4 156 -11 204 -27z m27 -1170 c110 -12 215 -40 271
-73 225 -132 268 -458 83 -642 -103 -103 -217 -135 -510 -142 l-213 -6 0 437
0 436 134 0 c74 0 179 -5 235 -10z"/>
<path d="M6520 8025 l0 -1435 215 0 215 0 0 585 0 585 39 0 38 0 409 -585 408
-585 269 0 269 0 -24 33 c-126 167 -858 1177 -858 1184 0 4 28 16 61 26 257
75 454 276 535 542 24 81 27 106 27 240 0 123 -4 164 -21 230 -65 240 -225
426 -446 517 -189 78 -355 98 -797 98 l-339 0 0 -1435z m815 1000 c214 -44
329 -156 357 -345 21 -142 -24 -301 -110 -386 -97 -96 -239 -141 -479 -151
l-153 -6 0 458 0 458 153 -6 c83 -3 188 -13 232 -22z"/>
<path d="M8480 9255 l0 -205 330 0 330 0 0 -1230 0 -1230 215 0 215 0 0 1230
0 1230 330 0 330 0 0 205 0 205 -875 0 -875 0 0 -205z"/>
<path d="M10610 8025 l0 -1435 790 0 790 0 0 205 0 205 -575 0 -575 0 0 475 0
475 560 0 560 0 0 205 0 205 -560 0 -560 0 0 345 0 345 575 0 575 0 0 205 0
205 -790 0 -790 0 0 -1435z"/>
<path d="M12750 8025 l0 -1435 215 0 215 0 0 585 0 585 39 0 38 0 409 -585
408 -585 269 0 269 0 -24 33 c-126 167 -858 1177 -858 1184 0 4 28 16 61 26
257 75 454 276 535 542 24 81 27 106 27 240 0 123 -4 164 -21 230 -65 240
-225 426 -446 517 -189 78 -355 98 -797 98 l-339 0 0 -1435z m815 1000 c214
-44 329 -156 357 -345 21 -142 -24 -301 -110 -386 -97 -96 -239 -141 -479
-151 l-153 -6 0 458 0 458 153 -6 c83 -3 188 -13 232 -22z"/>
<path d="M930 3890 l0 -270 6990 0 6990 0 0 270 0 270 -6990 0 -6990 0 0 -270z"/>
</g>
</svg>
